<?xml version="1.0" encoding="utf-8"?>
<!-- Generator: Adobe Illustrator 22.1.0, SVG Export Plug-In . SVG Version: 6.00 Build 0)  -->
<svg version="1.1" id="Layer_1" xmlns="http://www.w3.org/2000/svg" xmlns:xlink="http://www.w3.org/1999/xlink" x="0px" y="0px"
	 viewBox="0 0 240.7 66" style="enable-background:new 0 0 240.7 66;" xml:space="preserve">
<style type="text/css">
	.st0{fill:#6E1E39;}
</style>
<title>Asset 2</title>
<g>
	<g>
		<path class="st0" d="M32.9,55.3c0-2,0-3.9,0.1-4.9h-0.1c-0.5,1.4-2.9,6.3-4.4,9.5h-0.9c-1.1-2.5-3.6-8-4.2-9.5h0
			c0.1,1.2,0.1,3.5,0.1,5.2V60h-0.9V49.9h1.4c1.6,3.5,3.7,8,4.1,9.1h0c0.3-0.7,2.7-5.8,4.3-9.1h1.4V60h-0.9V55.3z"/>
		<path class="st0" d="M38.3,56.5L36.8,60h-0.9l4.4-10.1h1.1L45.9,60h-1l-1.5-3.5H38.3z M43.1,55.7c-1.3-3-2-4.4-2.2-5.1h0
			c-0.3,0.8-1.1,2.5-2.1,5.1H43.1z"/>
		<path class="st0" d="M49,55.2V60H48V49.9h4.3c2.3,0,3.6,1.1,3.6,2.7c0,1.3-0.9,2.1-2.2,2.4c1.2,0.2,2,0.9,2,2.6v0.4
			c0,0.7-0.1,1.7,0.2,2h-0.9c-0.2-0.4-0.2-1.2-0.2-2.1v-0.3c0-1.7-0.6-2.3-2.9-2.3H49z M49,54.5h2.9c2.1,0,3.1-0.7,3.1-2
			c0-1.2-1-1.9-2.8-1.9H49V54.5z"/>
		<path class="st0" d="M67.9,60h-0.8c-0.1-0.1-0.1-0.6-0.1-1.6c-0.4,0.7-1.4,1.7-3.8,1.7c-3.4,0-5.2-2.2-5.2-5.1
			c0-3,1.9-5.3,5.4-5.3c2.6,0,4.3,1.1,4.6,3h-0.9c-0.5-1.4-1.7-2.3-3.8-2.3c-3,0-4.3,2-4.3,4.5c0,2.3,1.3,4.4,4.2,4.4
			c3,0,3.8-1.6,3.8-3.9v-0.1h-3.8v-0.7h4.7V60z"/>
		<path class="st0" d="M72.4,56.5L70.9,60H70l4.4-10.1h1.1L80,60h-1l-1.5-3.5H72.4z M77.1,55.7c-1.3-3-2-4.4-2.2-5.1h0
			c-0.3,0.8-1.1,2.5-2.1,5.1H77.1z"/>
		<path class="st0" d="M83,55.2V60h-0.9V49.9h4.3c2.3,0,3.6,1.1,3.6,2.7c0,1.3-0.9,2.1-2.2,2.4c1.2,0.2,2,0.9,2,2.6v0.4
			c0,0.7-0.1,1.7,0.2,2H89c-0.2-0.4-0.2-1.2-0.2-2.1v-0.3c0-1.7-0.6-2.3-2.9-2.3H83z M83,54.5h2.9c2.1,0,3.1-0.7,3.1-2
			c0-1.2-1-1.9-2.8-1.9H83V54.5z"/>
		<path class="st0" d="M99.9,55h-6.1v4.2h6.7l-0.1,0.7h-7.4V49.9h7.3v0.7h-6.4v3.7h6.1V55z"/>
		<path class="st0" d="M105.8,50.6h-4v-0.7h9v0.7h-4V60h-0.9V50.6z"/>
		<path class="st0" d="M117.9,55.2V60H117V49.9h4.3c2.3,0,3.6,1.1,3.6,2.7c0,1.3-0.9,2.1-2.2,2.4c1.2,0.2,2,0.9,2,2.6v0.4
			c0,0.7-0.1,1.7,0.2,2h-0.9c-0.2-0.4-0.2-1.2-0.2-2.1v-0.3c0-1.7-0.6-2.3-2.9-2.3H117.9z M117.9,54.5h2.9c2.1,0,3.1-0.7,3.1-2
			c0-1.2-1-1.9-2.8-1.9h-3.1V54.5z"/>
		<path class="st0" d="M128.7,49.9V60h-0.9V49.9H128.7z"/>
		<path class="st0" d="M135,60l-4.4-10.1h1l2.3,5.3c0.7,1.5,1.4,3.2,1.7,4.1h0c0.3-0.7,1.1-2.5,1.7-4l2.4-5.3h1L136.1,60H135z"/>
		<path class="st0" d="M149.7,55h-6.1v4.2h6.7l-0.1,0.7h-7.4V49.9h7.3v0.7h-6.4v3.7h6.1V55z"/>
		<path class="st0" d="M153.6,55.2V60h-0.9V49.9h4.3c2.3,0,3.6,1.1,3.6,2.7c0,1.3-0.9,2.1-2.2,2.4c1.2,0.2,2,0.9,2,2.6v0.4
			c0,0.7-0.1,1.7,0.2,2h-0.9c-0.2-0.4-0.2-1.2-0.2-2.1v-0.3c0-1.7-0.6-2.3-2.9-2.3H153.6z M153.6,54.5h2.9c2.1,0,3.1-0.7,3.1-2
			c0-1.2-1-1.9-2.8-1.9h-3.1V54.5z"/>
		<path class="st0" d="M169.8,60l-3.3-10.1h1c0.8,2.4,2.6,8,2.9,9.2h0c0.2-0.9,2.2-6.5,3-9.2h1c0.8,2.5,2.7,8.4,2.9,9.2h0
			c0.4-1.4,2.4-6.8,3.2-9.2h0.9L177.8,60h-1.1c-0.8-2.4-2.6-8.2-2.8-9.1h0c-0.3,1.3-2.1,6.6-3,9.1H169.8z"/>
		<path class="st0" d="M184.5,49.9V60h-0.9V49.9H184.5z"/>
		<path class="st0" d="M188,60V49.9h1.4c1.9,2.4,6.2,8.1,7,9.1h0c-0.1-1.5-0.1-2.9-0.1-4.6v-4.6h0.9V60h-1.3
			c-1.8-2.3-6.2-8.2-7.1-9.3h0c0.1,1.3,0.1,2.8,0.1,4.6V60H188z"/>
		<path class="st0" d="M207.7,55h-6.1v4.2h6.7l-0.1,0.7h-7.4V49.9h7.3v0.7h-6.4v3.7h6.1V55z"/>
		<path class="st0" d="M210.8,57.2c0.4,1.3,1.4,2.1,3.4,2.1c2.2,0,3-0.9,3-2c0-1.1-0.6-1.8-3.2-2.4c-2.5-0.5-3.6-1.2-3.6-2.7
			c0-1.3,1.1-2.6,3.7-2.6c2.6,0,3.7,1.4,3.9,2.6h-1c-0.3-1.1-1.1-1.9-3-1.9c-1.7,0-2.7,0.7-2.7,1.8c0,1.1,0.8,1.5,3,2
			c3.4,0.7,3.8,1.8,3.8,3.1c0,1.5-1.3,2.8-4,2.8c-3,0-4.1-1.5-4.3-2.8H210.8z"/>
	</g>
	<polygon class="st0" points="43.3,42.2 4.1,42.2 4.1,41 43.1,41 	"/>
	<polygon class="st0" points="157.1,42.2 237,42.2 237,41 157.5,41 	"/>
	<polygon class="st0" points="57.8,42.2 141.8,42.2 141.5,41 58.2,41 	"/>
	<g>
		<path class="st0" d="M15,19.4V8.5c0-0.5-0.1-0.8-0.4-1.1l-1.4-1.2c-0.1-0.1-0.3-0.2-0.3-0.4c0-0.1,0.1-0.2,0.3-0.2h7.5
			c0.2,0,0.3,0.1,0.3,0.2c0,0.1-0.2,0.2-0.3,0.4l-1.4,1.2c-0.3,0.3-0.4,0.6-0.4,1.1v24.3c0,0.5,0.1,0.8,0.4,1.1l1.4,1.2
			c0.1,0.1,0.3,0.2,0.3,0.4c0,0.1-0.1,0.2-0.3,0.2h-7.5c-0.2,0-0.3-0.1-0.3-0.2c0-0.1,0.2-0.2,0.3-0.4l1.4-1.2
			c0.3-0.3,0.4-0.6,0.4-1.1V21.5h-4.8v11.4c0,0.5,0.1,0.8,0.4,1.1l1.4,1.2c0.1,0.1,0.3,0.2,0.3,0.4c0,0.1-0.1,0.2-0.3,0.2H4.6
			c-0.2,0-0.3-0.1-0.3-0.2c0-0.1,0.2-0.2,0.3-0.4L6.1,34c0.3-0.3,0.4-0.6,0.4-1.1V8.5c0-0.5-0.1-0.8-0.4-1.1L4.7,6.2
			C4.6,6.1,4.4,6,4.4,5.9c0-0.1,0.1-0.2,0.3-0.2h7.5c0.2,0,0.3,0.1,0.3,0.2c0,0.1-0.2,0.2-0.3,0.4l-1.4,1.2
			c-0.3,0.3-0.4,0.6-0.4,1.1v10.8H15z"/>
		<path class="st0" d="M37.1,19.9c0,7.6-0.6,15.9-6.4,15.9c-5.7,0-6.3-8.3-6.3-15.9c0-5.8,0.6-14.3,6.3-14.3
			C36.5,5.6,37.1,14.1,37.1,19.9z M28.4,19.9c0,10.4,1,13.8,2.4,13.8c1.4,0,2.5-3.4,2.5-13.8c0-8.9-1-12.3-2.5-12.3
			C29.4,7.6,28.4,11,28.4,19.9z"/>
		<path class="st0" d="M60.5,5.6h-6c-0.2,0-0.4,0-0.4,0.2c0,0.2,0.1,0.3,0.2,0.4l1.5,1.2c0.1,0.1,0.2,0.4,0.1,0.7l-1.9,14.2H54
			L51.7,8.2c0-0.3,0-0.6,0.1-0.7l1.5-1.3c0.2-0.2,0.3-0.3,0.3-0.4c0-0.1-0.1-0.2-0.3-0.2h-6c-0.2,0-0.4,0-0.4,0.2
			c0,0.2,0.1,0.3,0.3,0.4l1.5,1.2c0.2,0.2,0.3,0.4,0.2,0.7L47,22.4h-0.1L44.7,8.2c0-0.3,0-0.6,0.2-0.8l1.2-1.2
			c0.2-0.2,0.2-0.3,0.2-0.4c0-0.1-0.2-0.2-0.4-0.2h-6.8c-0.2,0-0.4,0-0.4,0.2c0,0.2,0.1,0.3,0.3,0.5l1.3,1.3
			c0.3,0.3,0.5,0.6,0.5,0.9l4.2,27l1.2,8.6l0.9-8.6l2.5-18.9h0.1L53,35.5l1.2,8.6l0.9-8.6l3.5-27c0-0.3,0.2-0.7,0.4-0.9l1.6-1.4
			c0.1-0.1,0.2-0.2,0.2-0.4C60.9,5.7,60.7,5.6,60.5,5.6z"/>
		<path class="st0" d="M65.5,8.5c0-0.5-0.1-0.8-0.4-1.1l-1.4-1.2c-0.1-0.1-0.3-0.2-0.3-0.4c0-0.1,0.1-0.2,0.3-0.2h7.5
			c0.2,0,0.3,0.1,0.3,0.2c0,0.1-0.2,0.2-0.3,0.4l-1.4,1.2c-0.3,0.3-0.4,0.6-0.4,1.1v25.2h1.9c0.6,0,1-0.1,1.2-0.6l2.9-7.8
			c0.1-0.2,0.1-0.3,0.3-0.3c0.1,0,0.2,0.1,0.2,0.3v9.8c0,0.4-0.1,0.6-0.5,0.6H63.6c-0.2,0-0.3-0.1-0.3-0.2c0-0.1,0.2-0.2,0.3-0.4
			l1.4-1.2c0.3-0.3,0.4-0.6,0.4-1.1V8.5z"/>
		<path class="st0" d="M81.3,8.5c0-0.5-0.1-0.8-0.4-1.1l-1.4-1.2c-0.1-0.1-0.3-0.2-0.3-0.4c0-0.1,0.1-0.2,0.3-0.2h7.5
			c0.2,0,0.3,0.1,0.3,0.2c0,0.1-0.2,0.2-0.3,0.4l-1.4,1.2C85.1,7.7,85,8,85,8.5v24.3c0,0.5,0.1,0.8,0.4,1.1l1.4,1.2
			c0.1,0.1,0.3,0.2,0.3,0.4c0,0.1-0.1,0.2-0.3,0.2h-7.5c-0.2,0-0.3-0.1-0.3-0.2c0-0.1,0.2-0.2,0.3-0.4l1.4-1.2
			c0.3-0.3,0.4-0.6,0.4-1.1V8.5z"/>
		<path class="st0" d="M92,8.5c0-0.5-0.1-0.8-0.4-1.1l-1.2-1.2C90.3,6.1,90,6,90,5.8c0-0.1,0.1-0.2,0.3-0.2H96
			c0.3,0,0.5,0.3,0.6,0.7l4.4,17.3h0.1V8.5c0-0.5-0.1-0.8-0.4-1.1l-1.3-1.2c-0.1-0.1-0.3-0.2-0.3-0.4c0-0.1,0.1-0.2,0.3-0.2h6.3
			c0.2,0,0.3,0.1,0.3,0.2c0,0.2-0.2,0.3-0.3,0.4l-1.2,1.2c-0.3,0.3-0.4,0.6-0.4,1.1v26.8c0,0.3-0.1,0.4-0.5,0.4h-2
			c-0.4,0-0.8-0.4-0.9-1l-5.6-21.9h-0.1v20c0,0.5,0.1,0.8,0.5,1.1l1.3,1.2c0.1,0.1,0.3,0.2,0.3,0.4c0,0.1-0.1,0.2-0.3,0.2h-6.3
			c-0.2,0-0.3-0.1-0.3-0.2c0-0.2,0.2-0.3,0.3-0.4l1.2-1.2c0.3-0.3,0.4-0.6,0.4-1.1V8.5z"/>
		<path class="st0" d="M118.1,22.9c0-0.4-0.2-0.6-0.5-0.9l-1.3-1c-0.2-0.2-0.2-0.2-0.2-0.4s0.1-0.2,0.4-0.2h7c0.2,0,0.3,0.1,0.3,0.2
			s-0.1,0.2-0.2,0.4l-1.4,1c-0.3,0.2-0.5,0.5-0.5,0.9v12.6c0,0.1-0.1,0.2-0.2,0.2c-0.2,0-0.4-0.1-0.5-0.2l-1.4-1.1
			c-0.2-0.1-0.3-0.2-0.5-0.2c-0.1,0-0.3,0-0.5,0.2c-1,0.8-1.9,1.2-3,1.2c-5.9,0-6.2-9.2-6.2-15.9c0-4.9,0.2-14.3,6.1-14.3
			c1.6,0,2.5,0.6,3,0.9c0.2,0.1,0.5,0.2,0.7,0.2c0.2,0,0.7-0.3,1.2-0.6c0.4-0.3,0.7-0.5,0.9-0.5c0.2,0,0.3,0.3,0.3,0.7v9.6
			c0,0.2-0.1,0.3-0.2,0.3c-0.2,0-0.3-0.2-0.4-0.4c-1-3-3-8.2-5.1-8.2c-2,0-2.6,3.8-2.6,12.3c0,11.6,0.6,13.8,2.3,13.8
			c1.5,0,2.5-1.5,2.5-5.3V22.9z"/>
		<path class="st0" d="M174.6,19.9c0,7.6-0.6,15.9-6.4,15.9c-5.7,0-6.3-8.3-6.3-15.9c0-5.8,0.6-14.3,6.3-14.3
			C174,5.7,174.6,14.2,174.6,19.9z M165.8,20c0,10.4,1,13.8,2.4,13.8c1.4,0,2.5-3.4,2.5-13.8c0-8.9-1-12.3-2.5-12.3
			C166.9,7.7,165.8,11.1,165.8,20z"/>
		<path class="st0" d="M180.4,8.6c0-0.5-0.1-0.8-0.4-1.1l-1.4-1.2c-0.1-0.1-0.3-0.2-0.3-0.4c0-0.1,0.1-0.2,0.3-0.2h7.5
			c0.2,0,0.3,0.1,0.3,0.2c0,0.1-0.2,0.2-0.3,0.4l-1.4,1.2c-0.3,0.3-0.4,0.6-0.4,1.1v25.2h1.9c0.6,0,1-0.1,1.2-0.6l2.9-7.8
			c0.1-0.2,0.1-0.3,0.3-0.3c0.1,0,0.2,0.1,0.2,0.3v9.8c0,0.4-0.1,0.6-0.5,0.6h-11.6c-0.2,0-0.3-0.1-0.3-0.2c0-0.1,0.2-0.2,0.3-0.4
			L180,34c0.3-0.3,0.4-0.6,0.4-1.1V8.6z"/>
		<path class="st0" d="M193.1,8.7c-0.1-0.4-0.2-0.8-0.6-1L191,6.3c-0.2-0.2-0.3-0.3-0.3-0.5c0-0.1,0.1-0.2,0.4-0.2h7.4
			c0.1,0,0.3,0,0.3,0.2c0,0.2-0.1,0.3-0.2,0.4l-1.2,1c-0.4,0.3-0.6,0.7-0.6,1.1l2.4,14.1h0.1l2-14.1c0-0.4-0.2-0.8-0.6-1.1l-1.1-1
			c-0.1-0.1-0.3-0.3-0.3-0.4c0-0.1,0.2-0.2,0.3-0.2h6.4c0.3,0,0.4,0,0.4,0.2c0,0.2-0.1,0.3-0.3,0.5l-1.6,1.3c-0.3,0.3-0.5,0.6-0.6,1
			l-3.7,26.7c0,0.3-0.2,0.4-0.5,0.4h-1.7c-0.2,0-0.3-0.1-0.4-0.3L193.1,8.7z"/>
		<path class="st0" d="M214.7,19.5h1c0.2,0,0.4-0.1,0.5-0.3l1.7-2.8c0.1-0.2,0.1-0.2,0.3-0.2c0.1,0,0.2,0.1,0.2,0.2v8.5
			c0,0.1,0,0.2-0.2,0.2c-0.2,0-0.2-0.1-0.3-0.3l-1.6-2.9c-0.1-0.2-0.3-0.3-0.5-0.3h-1v12.2h2.7c0.6,0,1.1-0.2,1.3-0.7l2.6-7.7
			c0-0.2,0.2-0.2,0.3-0.2c0.1,0,0.2,0.1,0.2,0.2v10.1c0,0.2-0.1,0.4-0.4,0.4h-12.3c-0.2,0-0.3-0.1-0.3-0.2c0-0.1,0.2-0.2,0.3-0.4
			l1.4-1.2c0.3-0.3,0.4-0.6,0.4-1.1V8.6c0-0.5-0.1-0.8-0.4-1.1l-1.4-1.2c-0.1-0.1-0.3-0.2-0.3-0.4c0-0.1,0.1-0.2,0.3-0.2h12.3
			c0.2,0,0.4,0.2,0.4,0.4v10c0,0.2-0.1,0.2-0.2,0.2c-0.2,0-0.3-0.1-0.4-0.3l-2.6-7.5c-0.2-0.5-0.6-0.8-1.2-0.8h-2.7V19.5z"/>
		<path class="st0" d="M235.9,16.1c0,0.1-0.1,0.2-0.3,0.2c-0.1,0-0.2-0.1-0.3-0.3c-0.8-3.3-3-8.3-5.2-8.3c-1.2,0-1.3,0.8-1.3,1.9
			c0,2,0.6,3.9,4.1,10.2c3.3,5.9,3.7,7.3,3.7,10.4c0,4.3-2.6,5.5-4.4,5.5c-1.3,0-2.1-0.4-2.7-0.8c-0.5-0.3-0.8-0.4-0.9-0.4
			c-0.2,0-0.6,0.3-1.5,0.9c-0.2,0.1-0.4,0.3-0.6,0.3c-0.2,0-0.2-0.1-0.2-0.2V25.5c0-0.1,0-0.3,0.2-0.3c0.1,0,0.2,0.2,0.3,0.3
			c0.9,3.2,2.3,8.3,5.1,8.3c0.9,0,1.4-0.8,1.4-2.1c0-2.7-1.4-5.6-4.1-10.4c-2.6-4.6-3.5-7.6-3.5-10.6c0-3.8,1.9-5,4.4-5
			c0.9,0,1.9,0.4,2.7,0.9c0.2,0.1,0.5,0.2,0.7,0.2s0.7-0.3,1.1-0.6c0.4-0.3,0.7-0.5,1-0.5c0.2,0,0.3,0.2,0.3,0.4V16.1z"/>
		<path class="st0" d="M159.9,5.7h-6c-0.2,0-0.4,0-0.4,0.2c0,0.2,0.1,0.3,0.2,0.4l1.5,1.2c0.1,0.1,0.2,0.4,0.1,0.7l-1.9,14.2h-0.1
			L151,8.3c0-0.3,0-0.6,0.1-0.7l1.5-1.3c0.2-0.2,0.3-0.3,0.3-0.4c0-0.1-0.1-0.2-0.3-0.2h-6c-0.2,0-0.4,0-0.4,0.2
			c0,0.2,0.1,0.3,0.3,0.4l1.5,1.2c0.2,0.2,0.3,0.4,0.2,0.7l-1.9,14.2h-0.1L144,8.2c0-0.3,0-0.6,0.2-0.8l1.2-1.2
			c0.2-0.2,0.2-0.3,0.2-0.4c0-0.1-0.2-0.2-0.4-0.2h-6.8c-0.2,0-0.4,0-0.4,0.2c0,0.2,0.1,0.3,0.3,0.5l1.3,1.3
			c0.3,0.3,0.5,0.6,0.5,0.9l4.2,27l1.2,8.6l0.9-8.6l2.5-18.9h0.1l3.1,18.9l1.2,8.6l0.9-8.6l3.5-27c0-0.3,0.2-0.7,0.4-0.9l1.6-1.4
			c0.1-0.1,0.2-0.2,0.2-0.4C160.2,5.7,160.1,5.7,159.9,5.7z"/>
	</g>
</g>
</svg>
