<?xml version="1.0" encoding="utf-8"?>
<!-- Generator: Adobe Illustrator 22.1.0, SVG Export Plug-In . SVG Version: 6.00 Build 0)  -->
<svg version="1.1" id="Layer_1" xmlns="http://www.w3.org/2000/svg" xmlns:xlink="http://www.w3.org/1999/xlink" x="0px" y="0px"
	 viewBox="0 0 221.8 59.4" style="enable-background:new 0 0 221.8 59.4;" xml:space="preserve">
<style type="text/css">
	.st0{fill:#6E1E39;}
</style>
<title>Asset 2</title>
<g>
	<g>
		<path class="st0" d="M29.5,50.1c0-1.8,0-3.6,0.1-4.5h0c-0.4,1.3-2.7,5.9-4.1,8.8h-0.8c-1.1-2.3-3.4-7.4-3.9-8.9h0
			c0.1,1.1,0.1,3.3,0.1,4.9v4h-0.9V45h1.3c1.5,3.2,3.4,7.4,3.9,8.5h0c0.3-0.7,2.5-5.4,4-8.5h1.3v9.4h-0.9V50.1z"/>
		<path class="st0" d="M34.6,51.1l-1.4,3.2h-0.9l4.1-9.4h1l4.2,9.4h-0.9l-1.4-3.2H34.6z M39,50.5c-1.2-2.8-1.9-4.1-2.1-4.8h0
			c-0.3,0.7-1,2.4-2,4.8H39z"/>
		<path class="st0" d="M44.5,50v4.4h-0.9V45h4c2.2,0,3.3,1,3.3,2.5c0,1.2-0.8,2-2.1,2.2c1.1,0.2,1.9,0.9,1.9,2.5v0.4
			c0,0.7-0.1,1.5,0.1,1.9H50c-0.2-0.4-0.2-1.2-0.2-2v-0.2c0-1.5-0.5-2.2-2.7-2.2H44.5z M44.5,49.3h2.7c1.9,0,2.9-0.6,2.9-1.9
			c0-1.2-0.9-1.8-2.6-1.8h-2.9V49.3z"/>
		<path class="st0" d="M62.1,54.4h-0.7c-0.1-0.1-0.1-0.6-0.1-1.5c-0.4,0.6-1.3,1.6-3.6,1.6c-3.2,0-4.8-2.1-4.8-4.7
			c0-2.8,1.7-4.9,5-4.9c2.4,0,4,1.1,4.3,2.8h-0.9c-0.5-1.3-1.6-2.1-3.5-2.1c-2.8,0-4,1.8-4,4.2c0,2.1,1.2,4.1,3.9,4.1
			c2.8,0,3.6-1.5,3.6-3.6v-0.1h-3.6v-0.7h4.4V54.4z"/>
		<path class="st0" d="M66.3,51.1l-1.4,3.2H64l4.1-9.4h1l4.2,9.4h-0.9L71,51.1H66.3z M70.7,50.5c-1.2-2.8-1.9-4.1-2.1-4.8h0
			c-0.3,0.7-1,2.4-2,4.8H70.7z"/>
		<path class="st0" d="M76.2,50v4.4h-0.9V45h4c2.2,0,3.3,1,3.3,2.5c0,1.2-0.8,2-2.1,2.2c1.1,0.2,1.9,0.9,1.9,2.5v0.4
			c0,0.7-0.1,1.5,0.1,1.9h-0.9c-0.2-0.4-0.2-1.2-0.2-2v-0.2c0-1.5-0.5-2.2-2.7-2.2H76.2z M76.2,49.3h2.7c1.9,0,2.9-0.6,2.9-1.9
			c0-1.2-0.9-1.8-2.6-1.8h-2.9V49.3z"/>
		<path class="st0" d="M91.8,49.8h-5.7v3.9h6.2l-0.1,0.7h-6.9V45h6.8v0.7h-5.9v3.4h5.7V49.8z"/>
		<path class="st0" d="M97.4,45.7h-3.7V45h8.3v0.7h-3.7v8.7h-0.9V45.7z"/>
		<path class="st0" d="M108.6,50v4.4h-0.9V45h4c2.2,0,3.3,1,3.3,2.5c0,1.2-0.8,2-2.1,2.2c1.1,0.2,1.9,0.9,1.9,2.5v0.4
			c0,0.7-0.1,1.5,0.1,1.9h-0.9c-0.2-0.4-0.2-1.2-0.2-2v-0.2c0-1.5-0.5-2.2-2.7-2.2H108.6z M108.6,49.3h2.7c1.9,0,2.9-0.6,2.9-1.9
			c0-1.2-0.9-1.8-2.6-1.8h-2.9V49.3z"/>
		<path class="st0" d="M118.6,45v9.4h-0.9V45H118.6z"/>
		<path class="st0" d="M124.5,54.4l-4.1-9.4h0.9l2.2,4.9c0.6,1.4,1.3,3,1.6,3.8h0c0.2-0.7,1-2.3,1.6-3.7l2.2-5h0.9l-4.3,9.4H124.5z"
			/>
		<path class="st0" d="M138.2,49.8h-5.7v3.9h6.2l-0.1,0.7h-6.9V45h6.8v0.7h-5.9v3.4h5.7V49.8z"/>
		<path class="st0" d="M141.8,50v4.4h-0.9V45h4c2.2,0,3.3,1,3.3,2.5c0,1.2-0.8,2-2.1,2.2c1.1,0.2,1.9,0.9,1.9,2.5v0.4
			c0,0.7-0.1,1.5,0.1,1.9h-0.9c-0.2-0.4-0.2-1.2-0.2-2v-0.2c0-1.5-0.5-2.2-2.7-2.2H141.8z M141.8,49.3h2.7c1.9,0,2.9-0.6,2.9-1.9
			c0-1.2-0.9-1.8-2.6-1.8h-2.9V49.3z"/>
		<path class="st0" d="M156.9,54.4l-3.1-9.4h0.9c0.7,2.3,2.4,7.4,2.7,8.5h0c0.2-0.9,2-6.1,2.8-8.5h1c0.7,2.3,2.5,7.8,2.7,8.5h0
			c0.3-1.3,2.2-6.3,3-8.5h0.9l-3.4,9.4h-1c-0.7-2.2-2.5-7.6-2.6-8.4h0c-0.3,1.2-2,6.1-2.8,8.4H156.9z"/>
		<path class="st0" d="M170.6,45v9.4h-0.9V45H170.6z"/>
		<path class="st0" d="M173.8,54.4V45h1.3c1.7,2.3,5.8,7.5,6.5,8.5h0c-0.1-1.4-0.1-2.7-0.1-4.3V45h0.9v9.4h-1.2
			c-1.6-2.2-5.8-7.6-6.6-8.7h0c0.1,1.2,0.1,2.6,0.1,4.3v4.4H173.8z"/>
		<path class="st0" d="M192.2,49.8h-5.7v3.9h6.2l-0.1,0.7h-6.9V45h6.8v0.7h-5.9v3.4h5.7V49.8z"/>
		<path class="st0" d="M195.1,51.8c0.3,1.2,1.3,2,3.1,2c2,0,2.8-0.9,2.8-1.9c0-1.1-0.6-1.7-3-2.2c-2.3-0.5-3.4-1.1-3.4-2.5
			c0-1.2,1.1-2.4,3.4-2.4c2.4,0,3.5,1.3,3.6,2.4h-0.9c-0.3-1-1-1.7-2.8-1.7c-1.6,0-2.5,0.6-2.5,1.7c0,1,0.7,1.4,2.8,1.9
			c3.1,0.7,3.6,1.7,3.6,2.8c0,1.4-1.2,2.6-3.8,2.6c-2.8,0-3.8-1.4-4-2.6H195.1z"/>
	</g>
	<polygon class="st0" points="39.2,37.9 2.7,37.9 2.7,36.7 39,36.7 	"/>
	<polygon class="st0" points="145.1,37.9 219.4,37.9 219.4,36.7 145.5,36.7 	"/>
	<polygon class="st0" points="52.7,37.9 130.9,37.9 130.6,36.7 53.1,36.7 	"/>
	<g>
		<path class="st0" d="M12.9,16.6V6.5c0-0.4-0.1-0.8-0.4-1l-1.3-1.1c-0.1-0.1-0.3-0.2-0.3-0.3c0-0.1,0.1-0.2,0.3-0.2H18
			c0.2,0,0.3,0.1,0.3,0.2c0,0.1-0.2,0.2-0.3,0.3l-1.3,1.1c-0.3,0.3-0.4,0.6-0.4,1v22.6c0,0.4,0.1,0.8,0.4,1l1.3,1.1
			c0.1,0.1,0.3,0.2,0.3,0.3c0,0.1-0.1,0.2-0.3,0.2h-6.9c-0.2,0-0.3-0.1-0.3-0.2c0-0.1,0.2-0.2,0.3-0.3l1.3-1.1
			c0.3-0.3,0.4-0.6,0.4-1V18.6H8.4v10.6c0,0.4,0.1,0.8,0.4,1l1.3,1.1c0.1,0.1,0.3,0.2,0.3,0.3c0,0.1-0.1,0.2-0.3,0.2H3.2
			c-0.2,0-0.3-0.1-0.3-0.2c0-0.1,0.2-0.2,0.3-0.3l1.3-1.1c0.3-0.3,0.4-0.6,0.4-1V6.5c0-0.4-0.1-0.8-0.4-1L3.2,4.4
			C3.2,4.3,2.9,4.1,2.9,4c0-0.1,0.1-0.2,0.3-0.2h6.9c0.2,0,0.3,0.1,0.3,0.2c0,0.1-0.2,0.2-0.3,0.3L8.8,5.4C8.5,5.7,8.4,6,8.4,6.5
			v10.1H12.9z"/>
		<path class="st0" d="M33.4,17.1c0,7.1-0.6,14.8-5.9,14.8c-5.3,0-5.9-7.7-5.9-14.8c0-5.4,0.6-13.3,5.9-13.3
			C32.9,3.8,33.4,11.7,33.4,17.1z M25.3,17.1c0,9.7,1,12.9,2.3,12.9c1.3,0,2.3-3.1,2.3-12.9c0-8.3-1-11.4-2.3-11.4
			C26.2,5.7,25.3,8.8,25.3,17.1z"/>
		<path class="st0" d="M55.2,3.8h-5.6c-0.2,0-0.4,0-0.4,0.1c0,0.1,0.1,0.3,0.2,0.4l1.4,1.2c0.1,0.1,0.2,0.4,0.1,0.7l-1.7,13.2h-0.1
			L47,6.2c0-0.3,0-0.5,0.1-0.6l1.4-1.2c0.2-0.1,0.3-0.3,0.3-0.4c0-0.1-0.1-0.1-0.3-0.1h-5.6c-0.2,0-0.4,0-0.4,0.1
			c0,0.1,0.1,0.3,0.3,0.4l1.4,1.2c0.2,0.1,0.3,0.4,0.2,0.7l-1.8,13.2h-0.1l-2-13.2c0-0.3,0-0.6,0.2-0.7l1.1-1.1
			C42,4.2,42.1,4.1,42.1,4c0-0.1-0.2-0.1-0.4-0.1h-6.3c-0.2,0-0.4,0-0.4,0.1c0,0.1,0.1,0.3,0.3,0.4l1.2,1.2C36.8,5.9,37,6.2,37,6.5
			l3.9,25.1l1.2,8l0.8-8L45.2,14h0.1l2.9,17.6l1.2,8l0.8-8l3.3-25.1c0-0.3,0.2-0.6,0.4-0.9l1.5-1.3c0.1-0.1,0.2-0.2,0.2-0.3
			C55.5,3.8,55.4,3.8,55.2,3.8z"/>
		<path class="st0" d="M59.8,6.5c0-0.4-0.1-0.8-0.4-1l-1.3-1.1C58,4.3,57.8,4.1,57.8,4c0-0.1,0.1-0.2,0.3-0.2H65
			c0.2,0,0.3,0.1,0.3,0.2c0,0.1-0.2,0.2-0.3,0.3l-1.3,1.1c-0.3,0.3-0.4,0.6-0.4,1V30H65c0.5,0,1-0.1,1.1-0.6l2.7-7.2
			c0.1-0.1,0.1-0.3,0.3-0.3c0.1,0,0.2,0.1,0.2,0.3v9.2c0,0.3-0.1,0.5-0.5,0.5H58.1c-0.2,0-0.3-0.1-0.3-0.2c0-0.1,0.2-0.2,0.3-0.3
			l1.3-1.1c0.3-0.3,0.4-0.6,0.4-1V6.5z"/>
		<path class="st0" d="M74.6,6.5c0-0.4-0.1-0.8-0.4-1l-1.3-1.1c-0.1-0.1-0.3-0.2-0.3-0.3c0-0.1,0.1-0.2,0.3-0.2h6.9
			C79.9,3.8,80,3.9,80,4c0,0.1-0.2,0.2-0.3,0.3l-1.3,1.1C78.1,5.7,78,6,78,6.5v22.6c0,0.4,0.1,0.8,0.4,1l1.3,1.1
			c0.1,0.1,0.3,0.2,0.3,0.3c0,0.1-0.1,0.2-0.3,0.2h-6.9c-0.2,0-0.3-0.1-0.3-0.2c0-0.1,0.2-0.2,0.3-0.3l1.3-1.1
			c0.3-0.3,0.4-0.6,0.4-1V6.5z"/>
		<path class="st0" d="M84.5,6.5c0-0.4-0.1-0.7-0.4-1L83,4.4c-0.1-0.1-0.3-0.2-0.3-0.4c0-0.1,0.1-0.2,0.3-0.2h5.3
			c0.3,0,0.4,0.3,0.5,0.6l4.1,16.1h0.1v-14c0-0.4-0.1-0.7-0.4-1l-1.2-1.1C91.2,4.3,91,4.1,91,4c0-0.1,0.1-0.2,0.3-0.2h5.8
			c0.2,0,0.3,0.1,0.3,0.2c0,0.1-0.2,0.3-0.3,0.4l-1.1,1.1c-0.3,0.3-0.4,0.6-0.4,1v24.9c0,0.3-0.1,0.4-0.4,0.4h-1.9
			c-0.4,0-0.8-0.4-0.9-0.9l-5.2-20.4h-0.1v18.6c0,0.4,0.1,0.7,0.4,1l1.2,1.1c0.1,0.1,0.3,0.2,0.3,0.4c0,0.1-0.1,0.2-0.3,0.2h-5.8
			c-0.2,0-0.3-0.1-0.3-0.2c0-0.1,0.2-0.3,0.3-0.4l1.1-1.1c0.3-0.3,0.4-0.6,0.4-1V6.5z"/>
		<path class="st0" d="M108.8,19.9c0-0.4-0.2-0.6-0.5-0.8l-1.2-0.9c-0.2-0.1-0.2-0.2-0.2-0.4s0.1-0.2,0.4-0.2h6.5
			c0.2,0,0.3,0.1,0.3,0.2s-0.1,0.2-0.2,0.4l-1.3,0.9c-0.3,0.2-0.4,0.4-0.4,0.8v11.7c0,0.1-0.1,0.2-0.2,0.2c-0.2,0-0.4-0.1-0.4-0.1
			l-1.3-1c-0.2-0.1-0.3-0.1-0.4-0.1c-0.1,0-0.3,0-0.4,0.1c-0.9,0.7-1.8,1.2-2.8,1.2c-5.5,0-5.7-8.5-5.7-14.8
			c0-4.6,0.2-13.3,5.7-13.3c1.5,0,2.3,0.6,2.8,0.9c0.2,0.1,0.5,0.2,0.7,0.2c0.2,0,0.7-0.3,1.1-0.6c0.4-0.3,0.7-0.5,0.9-0.5
			s0.3,0.3,0.3,0.6v9c0,0.1-0.1,0.3-0.2,0.3c-0.2,0-0.3-0.1-0.4-0.4c-0.9-2.8-2.8-7.6-4.8-7.6c-1.9,0-2.4,3.5-2.4,11.4
			c0,10.8,0.5,12.9,2.1,12.9c1.4,0,2.3-1.4,2.3-5V19.9z"/>
		<path class="st0" d="M161.4,17.1c0,7.1-0.6,14.8-5.9,14.8c-5.3,0-5.9-7.7-5.9-14.8c0-5.4,0.6-13.3,5.9-13.3
			C160.8,3.9,161.4,11.7,161.4,17.1z M153.2,17.2c0,9.7,1,12.9,2.3,12.9c1.3,0,2.3-3.1,2.3-12.9c0-8.3-1-11.4-2.3-11.4
			C154.2,5.7,153.2,8.9,153.2,17.2z"/>
		<path class="st0" d="M166.8,6.5c0-0.4-0.1-0.8-0.4-1L165,4.4c-0.1-0.1-0.3-0.2-0.3-0.3c0-0.1,0.1-0.2,0.3-0.2h6.9
			c0.2,0,0.3,0.1,0.3,0.2c0,0.1-0.2,0.2-0.3,0.3l-1.3,1.1c-0.3,0.3-0.4,0.6-0.4,1V30h1.8c0.5,0,1-0.1,1.1-0.6l2.7-7.2
			c0.1-0.1,0.1-0.3,0.3-0.3c0.1,0,0.2,0.1,0.2,0.3v9.2c0,0.3-0.1,0.5-0.5,0.5H165c-0.2,0-0.3-0.1-0.3-0.2c0-0.1,0.2-0.2,0.3-0.3
			l1.3-1.1c0.3-0.3,0.4-0.6,0.4-1V6.5z"/>
		<path class="st0" d="M178.6,6.7c-0.1-0.4-0.2-0.7-0.5-1l-1.5-1.2c-0.2-0.1-0.3-0.3-0.3-0.4c0-0.1,0.1-0.1,0.4-0.1h6.8
			c0.1,0,0.3,0,0.3,0.1c0,0.1-0.1,0.3-0.2,0.4l-1.1,0.9c-0.4,0.3-0.6,0.7-0.5,1l2.3,13.1h0.1l1.9-13.1c0-0.3-0.2-0.7-0.5-1l-1.1-0.9
			c-0.1-0.1-0.3-0.3-0.3-0.4c0-0.1,0.2-0.1,0.3-0.1h5.9c0.3,0,0.4,0,0.4,0.1c0,0.1-0.1,0.3-0.3,0.4l-1.5,1.2c-0.3,0.3-0.5,0.6-0.5,1
			l-3.5,24.8c0,0.3-0.2,0.4-0.4,0.4h-1.5c-0.2,0-0.3-0.1-0.4-0.3L178.6,6.7z"/>
		<path class="st0" d="M198.7,16.7h1c0.2,0,0.4-0.1,0.5-0.3l1.5-2.6c0.1-0.1,0.1-0.2,0.3-0.2c0.1,0,0.2,0.1,0.2,0.2v7.9
			c0,0.1,0,0.2-0.2,0.2c-0.2,0-0.2-0.1-0.3-0.3l-1.5-2.7c-0.1-0.2-0.3-0.3-0.5-0.3h-1V30h2.5c0.6,0,1-0.2,1.2-0.7l2.4-7.2
			c0-0.1,0.2-0.2,0.3-0.2c0.1,0,0.2,0.1,0.2,0.2v9.4c0,0.2-0.1,0.3-0.4,0.3h-11.4c-0.2,0-0.3-0.1-0.3-0.2c0-0.1,0.2-0.2,0.3-0.3
			l1.3-1.1c0.3-0.3,0.4-0.6,0.4-1V6.5c0-0.4-0.1-0.8-0.4-1l-1.3-1.1c-0.1-0.1-0.3-0.2-0.3-0.3c0-0.1,0.1-0.2,0.3-0.2H205
			c0.2,0,0.4,0.1,0.4,0.3v9.3c0,0.1-0.1,0.2-0.2,0.2c-0.2,0-0.3-0.1-0.4-0.3l-2.4-7c-0.2-0.5-0.6-0.7-1.1-0.7h-2.5V16.7z"/>
		<path class="st0" d="M218.5,13.5c0,0.1-0.1,0.2-0.3,0.2c-0.1,0-0.2-0.1-0.3-0.3c-0.7-3-2.8-7.7-4.9-7.7c-1.1,0-1.2,0.8-1.2,1.8
			c0,1.8,0.6,3.7,3.8,9.5c3.1,5.5,3.4,6.8,3.4,9.7c0,4-2.4,5.2-4.1,5.2c-1.2,0-1.9-0.4-2.5-0.7c-0.5-0.3-0.8-0.4-0.9-0.4
			c-0.2,0-0.5,0.3-1.4,0.8c-0.2,0.1-0.4,0.3-0.5,0.3c-0.2,0-0.2-0.1-0.2-0.2v-9.4c0-0.1,0-0.3,0.2-0.3c0.1,0,0.2,0.1,0.3,0.3
			c0.8,3,2.2,7.7,4.8,7.7c0.8,0,1.3-0.8,1.3-1.9c0-2.5-1.3-5.2-3.8-9.7c-2.4-4.3-3.3-7.1-3.3-9.8c0-3.5,1.8-4.7,4.1-4.7
			c0.8,0,1.8,0.4,2.5,0.9c0.2,0.1,0.5,0.2,0.7,0.2c0.2,0,0.6-0.3,1-0.6c0.4-0.3,0.7-0.5,0.9-0.5c0.2,0,0.3,0.2,0.3,0.4V13.5z"/>
		<path class="st0" d="M147.7,3.9h-5.6c-0.2,0-0.4,0-0.4,0.1c0,0.1,0.1,0.3,0.2,0.4l1.4,1.2c0.1,0.1,0.2,0.4,0.1,0.7l-1.7,13.2h-0.1
			l-2.2-13.2c0-0.3,0-0.5,0.1-0.6l1.4-1.2c0.2-0.1,0.3-0.3,0.3-0.4c0-0.1-0.1-0.1-0.3-0.1h-5.6c-0.2,0-0.4,0-0.4,0.1
			c0,0.1,0.1,0.3,0.3,0.4l1.4,1.2c0.2,0.1,0.3,0.4,0.2,0.7l-1.8,13.2H135l-2-13.2c0-0.3,0-0.6,0.2-0.7l1.1-1.1
			c0.2-0.1,0.2-0.3,0.2-0.4c0-0.1-0.2-0.1-0.4-0.1h-6.3c-0.2,0-0.4,0-0.4,0.1c0,0.1,0.1,0.3,0.3,0.4l1.2,1.2
			c0.3,0.3,0.4,0.6,0.5,0.9l3.9,25.1l1.2,8l0.8-8l2.3-17.6h0.1l2.9,17.6l1.2,8l0.8-8l3.3-25.1c0-0.3,0.2-0.6,0.4-0.9l1.5-1.3
			c0.1-0.1,0.2-0.2,0.2-0.3C148,3.9,147.9,3.9,147.7,3.9z"/>
	</g>
</g>
</svg>
