<?xml version="1.0" encoding="utf-8"?>
<!-- Generator: Adobe Illustrator 22.1.0, SVG Export Plug-In . SVG Version: 6.00 Build 0)  -->
<svg version="1.1" id="Layer_1" xmlns="http://www.w3.org/2000/svg" xmlns:xlink="http://www.w3.org/1999/xlink" x="0px" y="0px"
	 viewBox="0 0 335.7 92.1" style="enable-background:new 0 0 335.7 92.1;" xml:space="preserve">
<style type="text/css">
	.st0{fill:#6E1E39;}
	.st1{fill:#FFFFFF;}
</style>
<title>Asset 2</title>
<g>
	<g>
		<g>
			<path class="st0" d="M133.8,85.3c0-1.9,0-3.6,0.1-4.6h0c-0.4,1.3-2.3,5.9-3.5,8.9h-0.7c-0.9-2.3-2.9-7.5-3.3-8.9h0
				c0.1,1.1,0.1,3.3,0.1,4.9v4h-0.7v-9.5h1.1c1.3,3.2,2.9,7.5,3.3,8.6h0c0.2-0.7,2.1-5.4,3.4-8.6h1.1v9.5h-0.7V85.3z"/>
			<path class="st0" d="M138.2,86.4l-1.2,3.3h-0.7l3.5-9.5h0.9l3.6,9.5h-0.8l-1.2-3.3H138.2z M141.9,85.7c-1.1-2.8-1.6-4.2-1.8-4.8
				h0c-0.2,0.7-0.8,2.4-1.7,4.8H141.9z"/>
			<path class="st0" d="M146.6,85.3v4.4h-0.7v-9.5h3.4c1.9,0,2.9,1,2.9,2.5c0,1.2-0.7,2-1.8,2.2c1,0.2,1.6,0.9,1.6,2.5v0.4
				c0,0.7-0.1,1.6,0.1,1.9h-0.7c-0.2-0.4-0.1-1.2-0.1-2v-0.2c0-1.6-0.5-2.2-2.3-2.2H146.6z M146.6,84.6h2.3c1.7,0,2.4-0.6,2.4-1.9
				c0-1.2-0.8-1.8-2.2-1.8h-2.5V84.6z"/>
			<path class="st0" d="M161.7,89.7h-0.6c-0.1-0.1-0.1-0.6-0.1-1.5c-0.3,0.6-1.1,1.6-3.1,1.6c-2.7,0-4.1-2.1-4.1-4.8
				c0-2.8,1.5-4.9,4.3-4.9c2,0,3.4,1.1,3.7,2.8H161c-0.4-1.3-1.3-2.1-3-2.1c-2.4,0-3.4,1.8-3.4,4.2c0,2.2,1,4.1,3.4,4.1
				c2.4,0,3-1.5,3-3.6v-0.1h-3.1v-0.7h3.8V89.7z"/>
			<path class="st0" d="M165.2,86.4l-1.2,3.3h-0.7l3.5-9.5h0.9l3.6,9.5h-0.8l-1.2-3.3H165.2z M169,85.7c-1.1-2.8-1.6-4.2-1.8-4.8h0
				c-0.2,0.7-0.8,2.4-1.7,4.8H169z"/>
			<path class="st0" d="M173.7,85.3v4.4h-0.7v-9.5h3.4c1.9,0,2.9,1,2.9,2.5c0,1.2-0.7,2-1.8,2.2c1,0.2,1.6,0.9,1.6,2.5v0.4
				c0,0.7-0.1,1.6,0.1,1.9h-0.7c-0.2-0.4-0.1-1.2-0.1-2v-0.2c0-1.6-0.5-2.2-2.3-2.2H173.7z M173.7,84.6h2.3c1.7,0,2.4-0.6,2.4-1.9
				c0-1.2-0.8-1.8-2.2-1.8h-2.5V84.6z"/>
			<path class="st0" d="M187.1,85h-4.8v4h5.3l-0.1,0.7h-5.9v-9.5h5.8v0.7h-5.1v3.5h4.8V85z"/>
			<path class="st0" d="M191.8,80.9h-3.2v-0.7h7.1v0.7h-3.2v8.8h-0.7V80.9z"/>
			<path class="st0" d="M201.4,85.3v4.4h-0.7v-9.5h3.4c1.9,0,2.9,1,2.9,2.5c0,1.2-0.7,2-1.8,2.2c1,0.2,1.6,0.9,1.6,2.5v0.4
				c0,0.7-0.1,1.6,0.1,1.9h-0.7c-0.2-0.4-0.1-1.2-0.1-2v-0.2c0-1.6-0.5-2.2-2.3-2.2H201.4z M201.4,84.6h2.3c1.7,0,2.4-0.6,2.4-1.9
				c0-1.2-0.8-1.8-2.2-1.8h-2.5V84.6z"/>
			<path class="st0" d="M209.9,80.2v9.5h-0.7v-9.5H209.9z"/>
			<path class="st0" d="M214.9,89.7l-3.5-9.5h0.8l1.8,4.9c0.5,1.4,1.1,3,1.3,3.8h0c0.2-0.7,0.9-2.4,1.4-3.8l1.9-5h0.8l-3.7,9.5
				H214.9z"/>
			<path class="st0" d="M226.6,85h-4.8v4h5.3l-0.1,0.7h-5.9v-9.5h5.8v0.7h-5.1v3.5h4.8V85z"/>
			<path class="st0" d="M229.7,85.3v4.4h-0.7v-9.5h3.4c1.9,0,2.9,1,2.9,2.5c0,1.2-0.7,2-1.8,2.2c1,0.2,1.6,0.9,1.6,2.5v0.4
				c0,0.7-0.1,1.6,0.1,1.9h-0.7c-0.2-0.4-0.1-1.2-0.1-2v-0.2c0-1.6-0.5-2.2-2.3-2.2H229.7z M229.7,84.6h2.3c1.7,0,2.4-0.6,2.4-1.9
				c0-1.2-0.8-1.8-2.2-1.8h-2.5V84.6z"/>
			<path class="st0" d="M242.6,89.7l-2.6-9.5h0.8c0.6,2.3,2.1,7.5,2.3,8.6h0c0.2-0.9,1.7-6.1,2.4-8.6h0.8c0.6,2.3,2.1,7.9,2.3,8.6h0
				c0.3-1.3,1.9-6.3,2.5-8.6h0.7l-2.9,9.5h-0.8c-0.6-2.2-2.1-7.7-2.3-8.5h0c-0.2,1.2-1.7,6.2-2.4,8.5H242.6z"/>
			<path class="st0" d="M254.2,80.2v9.5h-0.7v-9.5H254.2z"/>
			<path class="st0" d="M257,89.7v-9.5h1.1c1.5,2.3,4.9,7.6,5.5,8.6h0c-0.1-1.4-0.1-2.8-0.1-4.3v-4.3h0.7v9.5h-1
				c-1.4-2.2-4.9-7.7-5.6-8.7h0c0.1,1.2,0.1,2.6,0.1,4.3v4.4H257z"/>
			<path class="st0" d="M272.7,85h-4.8v4h5.3l-0.1,0.7h-5.9v-9.5h5.8v0.7h-5.1v3.5h4.8V85z"/>
			<path class="st0" d="M275.1,87.1c0.3,1.3,1.1,2,2.7,2c1.7,0,2.4-0.9,2.4-1.9c0-1.1-0.5-1.7-2.6-2.2c-2-0.5-2.9-1.1-2.9-2.5
				c0-1.2,0.9-2.4,2.9-2.4c2.1,0,3,1.3,3.1,2.4h-0.8c-0.2-1-0.9-1.7-2.4-1.7c-1.4,0-2.1,0.6-2.1,1.7c0,1,0.6,1.4,2.4,1.9
				c2.7,0.7,3.1,1.7,3.1,2.9c0,1.4-1,2.6-3.2,2.6c-2.4,0-3.2-1.4-3.4-2.7H275.1z"/>
		</g>
		<polygon class="st0" points="142.1,73.1 111,73.1 111,71.9 142,71.9 		"/>
		<polygon class="st0" points="232.5,73.1 295.9,73.1 295.9,71.9 232.8,71.9 		"/>
		<polygon class="st0" points="153.6,73.1 220.4,73.1 220.1,71.9 154,71.9 		"/>
		<g>
			<path class="st0" d="M119.7,51.6V41.4c0-0.5-0.1-0.8-0.3-1.1l-1.1-1.1c-0.1-0.1-0.3-0.2-0.3-0.3c0-0.1,0.1-0.2,0.2-0.2h5.9
				c0.2,0,0.2,0.1,0.2,0.2c0,0.1-0.2,0.2-0.3,0.3l-1.1,1.1c-0.3,0.3-0.3,0.6-0.3,1.1v22.8c0,0.5,0.1,0.8,0.3,1.1l1.1,1.1
				c0.1,0.1,0.3,0.2,0.3,0.3c0,0.1-0.1,0.2-0.2,0.2h-5.9c-0.2,0-0.2-0.1-0.2-0.2c0-0.1,0.2-0.2,0.3-0.3l1.1-1.1
				c0.3-0.3,0.3-0.6,0.3-1.1V53.6h-3.8v10.7c0,0.5,0.1,0.8,0.3,1.1l1.1,1.1c0.1,0.1,0.3,0.2,0.3,0.3c0,0.1-0.1,0.2-0.2,0.2h-5.9
				c-0.2,0-0.2-0.1-0.2-0.2c0-0.1,0.2-0.2,0.3-0.3l1.1-1.1c0.3-0.3,0.3-0.6,0.3-1.1V41.4c0-0.5-0.1-0.8-0.3-1.1l-1.1-1.1
				c-0.1-0.1-0.3-0.2-0.3-0.3c0-0.1,0.1-0.2,0.2-0.2h5.9c0.2,0,0.2,0.1,0.2,0.2c0,0.1-0.2,0.2-0.3,0.3l-1.1,1.1
				c-0.3,0.3-0.3,0.6-0.3,1.1v10.2H119.7z"/>
			<path class="st0" d="M137.2,52.1c0,7.1-0.5,14.9-5.1,14.9c-4.5,0-5-7.8-5-14.9c0-5.4,0.5-13.4,5-13.4
				C136.7,38.7,137.2,46.6,137.2,52.1z M130.3,52.1c0,9.8,0.8,13,1.9,13c1.1,0,2-3.2,2-13c0-8.4-0.8-11.5-2-11.5
				C131.1,40.6,130.3,43.7,130.3,52.1z"/>
			<path class="st0" d="M155.8,38.7H151c-0.2,0-0.3,0-0.3,0.2c0,0.2,0.1,0.3,0.2,0.4l1.2,1.2c0.1,0.1,0.2,0.4,0.1,0.7l-1.5,13.3
				h-0.1l-1.8-13.3c0-0.3,0-0.5,0.1-0.6l1.2-1.2c0.2-0.2,0.2-0.3,0.2-0.4c0-0.1-0.1-0.2-0.3-0.2h-4.8c-0.2,0-0.3,0-0.3,0.2
				c0,0.2,0.1,0.3,0.2,0.4l1.2,1.2c0.2,0.2,0.2,0.4,0.2,0.7L145,54.4h-0.1l-1.7-13.3c0-0.3,0-0.6,0.2-0.8l1-1.1
				c0.2-0.2,0.2-0.3,0.2-0.4c0-0.1-0.2-0.2-0.3-0.2h-5.4c-0.2,0-0.3,0-0.3,0.2c0,0.2,0.1,0.3,0.3,0.5l1,1.2c0.2,0.3,0.4,0.6,0.4,0.9
				l3.3,25.3l1,8.1l0.7-8.1l2-17.7h0.1l2.4,17.7l1,8.1l0.7-8.1l2.8-25.3c0-0.3,0.2-0.6,0.3-0.9l1.3-1.4c0.1-0.1,0.2-0.2,0.2-0.3
				C156.1,38.7,156,38.7,155.8,38.7z"/>
			<path class="st0" d="M159.7,41.4c0-0.5-0.1-0.8-0.3-1.1l-1.1-1.1c-0.1-0.1-0.3-0.2-0.3-0.3c0-0.1,0.1-0.2,0.2-0.2h5.9
				c0.2,0,0.2,0.1,0.2,0.2c0,0.1-0.2,0.2-0.3,0.3l-1.1,1.1c-0.3,0.3-0.3,0.6-0.3,1.1v23.7h1.5c0.5,0,0.8-0.1,1-0.6l2.3-7.3
				c0.1-0.2,0.1-0.3,0.2-0.3c0.1,0,0.2,0.1,0.2,0.3v9.2c0,0.3-0.1,0.5-0.4,0.5h-9.2c-0.2,0-0.2-0.1-0.2-0.2c0-0.1,0.2-0.2,0.3-0.3
				l1.1-1.1c0.3-0.3,0.3-0.6,0.3-1.1V41.4z"/>
			<path class="st0" d="M172.3,41.4c0-0.5-0.1-0.8-0.3-1.1l-1.1-1.1c-0.1-0.1-0.3-0.2-0.3-0.3c0-0.1,0.1-0.2,0.2-0.2h5.9
				c0.2,0,0.2,0.1,0.2,0.2c0,0.1-0.2,0.2-0.3,0.3l-1.1,1.1c-0.3,0.3-0.3,0.6-0.3,1.1v22.8c0,0.5,0.1,0.8,0.3,1.1l1.1,1.1
				c0.1,0.1,0.3,0.2,0.3,0.3c0,0.1-0.1,0.2-0.2,0.2h-5.9c-0.2,0-0.2-0.1-0.2-0.2c0-0.1,0.2-0.2,0.3-0.3l1.1-1.1
				c0.3-0.3,0.3-0.6,0.3-1.1V41.4z"/>
			<path class="st0" d="M180.8,41.4c0-0.5-0.1-0.8-0.3-1.1l-0.9-1.1c-0.1-0.1-0.3-0.2-0.3-0.4c0-0.1,0.1-0.2,0.2-0.2h4.5
				c0.3,0,0.4,0.3,0.5,0.6l3.5,16.2h0.1V41.4c0-0.5-0.1-0.8-0.3-1l-1.1-1.1c-0.1-0.1-0.3-0.2-0.3-0.4c0-0.1,0.1-0.2,0.2-0.2h5
				c0.2,0,0.2,0.1,0.2,0.2c0,0.2-0.2,0.3-0.3,0.4l-0.9,1.1c-0.2,0.3-0.3,0.6-0.3,1.1v25.1c0,0.3-0.1,0.4-0.4,0.4h-1.6
				c-0.3,0-0.6-0.4-0.8-0.9l-4.4-20.5H183v18.8c0,0.5,0.1,0.8,0.4,1l1,1.1c0.1,0.1,0.3,0.2,0.3,0.4c0,0.1-0.1,0.2-0.2,0.2h-5
				c-0.2,0-0.2-0.1-0.2-0.2c0-0.2,0.2-0.3,0.3-0.4l0.9-1.1c0.2-0.3,0.3-0.6,0.3-1.1V41.4z"/>
			<path class="st0" d="M201.5,54.9c0-0.4-0.2-0.6-0.4-0.8l-1.1-0.9c-0.2-0.2-0.2-0.2-0.2-0.4c0-0.2,0.1-0.2,0.3-0.2h5.6
				c0.2,0,0.3,0.1,0.3,0.2c0,0.2-0.1,0.2-0.2,0.4l-1.1,0.9c-0.3,0.2-0.4,0.5-0.4,0.8v11.8c0,0.1-0.1,0.2-0.2,0.2
				c-0.2,0-0.3-0.1-0.4-0.2l-1.1-1c-0.2-0.1-0.2-0.2-0.4-0.2c-0.1,0-0.2,0-0.4,0.2c-0.8,0.7-1.5,1.2-2.4,1.2
				c-4.7,0-4.9-8.6-4.9-14.9c0-4.6,0.2-13.4,4.8-13.4c1.2,0,2,0.6,2.4,0.9c0.2,0.1,0.4,0.2,0.6,0.2c0.2,0,0.6-0.3,0.9-0.6
				c0.3-0.3,0.6-0.5,0.8-0.5c0.2,0,0.3,0.3,0.3,0.6v9c0,0.2-0.1,0.3-0.2,0.3c-0.2,0-0.3-0.2-0.3-0.4c-0.8-2.8-2.4-7.7-4.1-7.7
				c-1.6,0-2,3.6-2,11.5c0,10.9,0.5,13,1.8,13c1.2,0,2-1.4,2-5V54.9z"/>
			<path class="st0" d="M246.4,52.1c0,7.1-0.5,14.9-5.1,14.9c-4.5,0-5-7.8-5-14.9c0-5.4,0.5-13.4,5-13.4
				C245.9,38.7,246.4,46.7,246.4,52.1z M239.4,52.2c0,9.8,0.8,13,1.9,13c1.1,0,2-3.2,2-13c0-8.4-0.8-11.5-2-11.5
				C240.3,40.6,239.4,43.8,239.4,52.2z"/>
			<path class="st0" d="M251,41.5c0-0.5-0.1-0.8-0.3-1.1l-1.1-1.1c-0.1-0.1-0.3-0.2-0.3-0.3c0-0.1,0.1-0.2,0.2-0.2h5.9
				c0.2,0,0.2,0.1,0.2,0.2c0,0.1-0.2,0.2-0.3,0.3l-1.1,1.1c-0.3,0.3-0.3,0.6-0.3,1.1v23.7h1.5c0.5,0,0.8-0.1,1-0.6l2.3-7.3
				c0.1-0.2,0.1-0.3,0.2-0.3c0.1,0,0.2,0.1,0.2,0.3v9.2c0,0.3-0.1,0.5-0.4,0.5h-9.2c-0.2,0-0.2-0.1-0.2-0.2c0-0.1,0.2-0.2,0.3-0.3
				l1.1-1.1c0.3-0.3,0.3-0.6,0.3-1.1V41.5z"/>
			<path class="st0" d="M261.1,41.6c-0.1-0.4-0.2-0.7-0.5-1l-1.2-1.2c-0.2-0.2-0.2-0.3-0.2-0.5c0-0.1,0.1-0.2,0.3-0.2h5.8
				c0.1,0,0.2,0,0.2,0.2c0,0.2-0.1,0.3-0.2,0.4l-1,0.9c-0.3,0.3-0.5,0.7-0.5,1l1.9,13.2h0.1l1.6-13.2c0-0.3-0.2-0.7-0.5-1l-0.9-0.9
				c-0.1-0.1-0.2-0.3-0.2-0.4c0-0.1,0.2-0.2,0.3-0.2h5c0.2,0,0.3,0,0.3,0.2c0,0.2-0.1,0.3-0.2,0.5l-1.2,1.2c-0.3,0.3-0.4,0.6-0.5,1
				l-3,25c0,0.3-0.2,0.4-0.4,0.4H265c-0.2,0-0.3-0.1-0.3-0.3L261.1,41.6z"/>
			<path class="st0" d="M278.2,51.7h0.8c0.2,0,0.3-0.1,0.4-0.3l1.3-2.6c0.1-0.2,0.1-0.2,0.2-0.2c0.1,0,0.2,0.1,0.2,0.2v8
				c0,0.1,0,0.2-0.2,0.2c-0.2,0-0.2-0.1-0.3-0.3l-1.3-2.8c-0.1-0.2-0.2-0.3-0.4-0.3h-0.8v11.5h2.1c0.5,0,0.9-0.2,1-0.7l2-7.2
				c0-0.2,0.2-0.2,0.3-0.2c0.1,0,0.2,0.1,0.2,0.2v9.5c0,0.2-0.1,0.3-0.3,0.3h-9.8c-0.2,0-0.2-0.1-0.2-0.2c0-0.1,0.2-0.2,0.3-0.3
				l1.1-1.1c0.3-0.3,0.3-0.6,0.3-1.1V41.5c0-0.5-0.1-0.8-0.3-1.1l-1.1-1.1c-0.1-0.1-0.3-0.2-0.3-0.3c0-0.1,0.1-0.2,0.2-0.2h9.8
				c0.2,0,0.3,0.2,0.3,0.3v9.4c0,0.2-0.1,0.2-0.2,0.2c-0.2,0-0.3-0.1-0.3-0.3l-2-7.1c-0.2-0.5-0.5-0.7-1-0.7h-2.1V51.7z"/>
			<path class="st0" d="M295.1,48.5c0,0.1-0.1,0.2-0.2,0.2c-0.1,0-0.2-0.1-0.2-0.3c-0.6-3.1-2.4-7.8-4.1-7.8c-0.9,0-1,0.8-1,1.8
				c0,1.8,0.5,3.7,3.3,9.6c2.6,5.6,2.9,6.8,2.9,9.8c0,4-2.1,5.2-3.5,5.2c-1,0-1.7-0.4-2.1-0.7c-0.4-0.3-0.6-0.4-0.8-0.4
				c-0.2,0-0.5,0.3-1.2,0.8c-0.2,0.1-0.3,0.3-0.5,0.3c-0.2,0-0.2-0.1-0.2-0.2v-9.5c0-0.1,0-0.3,0.2-0.3c0.1,0,0.2,0.2,0.2,0.3
				c0.7,3,1.8,7.8,4.1,7.8c0.7,0,1.1-0.8,1.1-2c0-2.5-1.1-5.3-3.3-9.8c-2-4.3-2.8-7.2-2.8-9.9c0-3.6,1.5-4.7,3.5-4.7
				c0.7,0,1.5,0.4,2.1,0.9c0.2,0.1,0.4,0.2,0.6,0.2s0.5-0.3,0.9-0.6c0.3-0.3,0.6-0.5,0.8-0.5c0.2,0,0.3,0.2,0.3,0.4V48.5z"/>
			<path class="st0" d="M234.7,38.7h-4.8c-0.2,0-0.3,0-0.3,0.2c0,0.2,0.1,0.3,0.2,0.4l1.2,1.2c0.1,0.1,0.2,0.4,0.1,0.7l-1.5,13.3
				h-0.1l-1.8-13.3c0-0.3,0-0.5,0.1-0.6l1.2-1.2c0.2-0.2,0.2-0.3,0.2-0.4c0-0.1-0.1-0.2-0.3-0.2h-4.8c-0.2,0-0.3,0-0.3,0.2
				c0,0.2,0.1,0.3,0.2,0.4l1.2,1.2c0.2,0.2,0.2,0.4,0.2,0.7l-1.5,13.3h-0.1l-1.7-13.3c0-0.3,0-0.6,0.2-0.8l1-1.1
				c0.2-0.2,0.2-0.3,0.2-0.4c0-0.1-0.2-0.2-0.3-0.2h-5.4c-0.2,0-0.3,0-0.3,0.2c0,0.2,0.1,0.3,0.3,0.5l1,1.2c0.2,0.3,0.4,0.6,0.4,0.9
				l3.3,25.3l1,8.1l0.7-8.1l2-17.7h0.1l2.4,17.7l1,8.1l0.7-8.1l2.8-25.3c0-0.3,0.2-0.6,0.3-0.9l1.3-1.4c0.1-0.1,0.2-0.2,0.2-0.3
				C235,38.8,234.9,38.7,234.7,38.7z"/>
		</g>
	</g>
	<g>
		<g>
			<path class="st0" d="M54.1,32.8c2.2-4.5,6.8-9.9,11.2-10.2c3.5-0.2,4.3,1.9,1.8,3.6C64.6,27.9,59.7,26.9,54.1,32.8z"/>
			<path class="st1" d="M59.3,28.5c1.3-2.2,4-4.9,6.3-4.8c1.8,0.1,2.2,1.2,0.8,1.9S62.5,25.7,59.3,28.5z"/>
			<path class="st0" d="M49,41.8c1.7-1.8,4.9-5.4,7.7-1.4c0,0-0.4-2.9,3.8-6.3c0,0-1.7,2.9,2,3c0,0,0.9-4.7,7-7.9
				c0,0-7.5,7.7-1.6,11.9c0,0-7.6,0.4-9-2.6c0,0-2.9,4.8,1.4,6.9c0,0-4.5-1.1-6.7-3.9C52.5,40.2,52.3,39.6,49,41.8z"/>
			<path class="st0" d="M98.8,26c0.9-3.9,1.2-10.2-0.6-15.9S92,2.1,89.4,2.1c-2.6,0-3.3,2.5-7.3,6.8c-4,4.4-11.4,7.4-22.5,12.1
				s-13.2,8.5-14.9,13.5c-2.8,4.4-9.9,9.8-21.2,15c17.1-4.2,19.4-9.9,19.7-10.6c-0.1,0.5-0.9,3-2.8,5.5c-2,2.7-9.1,4.4-9.1,4.4
				c1.9,1.1,6.8,1.2,8.6-1.1c-5.6,8.5-15.7,2.3-15.7,2.3c1.5,4,7.9,6,12.6,5.6c0.1,8.6-6.7,14.4-10.5,17.1c9-0.8,14.9-6.5,16.8-12.4
				c0.4,9.4,11.6,20.1,27.6,21.3C35.4,70.4,52.6,47.9,52.6,47.9c-2.6-0.1-8.3,3-10.6,7.6c1.3-7.8,2.2-14.6,10.6-18.8
				c0,0-3.8,0.6-5.7,2.3c0,0,0.9-5.3,5.7-9.5c4.8-4.3,8.2-7.4,13.9-8.9c5.6-1.5,4.1,2.7,3,4.7c2.8-4.1,5.2-8.5,10.3-11.2
				c-1.2,4.3,1.5,5.6,2.8,8.5c0,0-2.8-7.4,1.1-12.3c4-4.9,11.3,1.1,13-1.3c1.5,3,3.5,9.9,0.3,16.9c-2.6-3.1,0-6.8,0-10.1
				c-1,0.4-2.3,0-2.2-4.7c0,0-0.1,4-1.5,4.5c-1.5,0.5-2.9,0.5-4.6,3.1c-1.7,2.3-2.9,6.5-2.4,14c1.5-0.7,3.5-2.5,4-5.5
				c0.6-3,0.5-4.9,0.5-4.9s3.7,1.3,2.3,4.9c0,0,7.9-0.8,9.1,5.2c-7.4,4.1-14.9,10.1-16.5,21.4c0,0,3.2-7.2,7.8-10.2
				c-4.6,6.3-7.7,19.5,7.9,28.1c-20.9-17.5,2.6-36.3,2.6-36.3C104.7,26.2,98.8,26,98.8,26z M94.4,8.4c-0.4-2.2-4.1-4.7-3.2-4.6
				c1-0.1,3,0.4,3.3,1.7C94.7,6.8,94.6,9.8,94.4,8.4z"/>
		</g>
		<circle class="st0" cx="65.6" cy="24.8" r="1.9"/>
	</g>
</g>
</svg>
